<svg width="256" height="256" xmlns="http://www.w3.org/2000/svg" xmlns:xlink="http://www.w3.org/1999/xlink">
  <defs>
    <linearGradient id="2">
      <stop id="J" stop-color="#d3d7cf"/>
      <stop id="K" offset="1" stop-color="#eeeeec"/>
    </linearGradient>
    <linearGradient id="3">
      <stop id="L" stop-color="#eeeeec"/>
      <stop id="M" offset="1" stop-color="#eeeeec" stop-opacity="0"/>
    </linearGradient>
    <linearGradient id="5">
      <stop id="P" stop-color="#fff" stop-opacity="0.8"/>
      <stop id="Q" offset="1" stop-color="#fff" stop-opacity="0"/>
    </linearGradient>
    <linearGradient y1="-0.012959" x2="-0.122366" y2="1.012959" id="9" xlink:href="#5" x1="-0.122366"/>
    <radialGradient cx="16.362" cy="28.942" r="13.14" id="A" xlink:href="#2" gradientUnits="userSpaceOnUse" gradientTransform="matrix(1.3080842,-1.9832134,1.5510881,1.0230635,-42.293506,47.078193)"/>
    <linearGradient x1="0.000006" y1="-2.814901" x2="0.281425" y2="1.351263" id="B" xlink:href="#3"/>
  </defs>
  <g  id="1" transform="scale(5.2)">
    <!-- shadow -->
    <!--<path d="m 47.453955,45.941494 a 23.076923,3.3586134 0 1 1 -46.153847,0 23.076923,3.3586134 0 1 1 46.153847,0 z" transform="translate(-0.37703133,-2.8001078)" id="C" opacity="0.8" fill="url(#7)"/>-->
    <rect width="42" height="42" x="4" y="4" id="D" fill="#03477F" rx="6"/>
    <path d="m10,5.09375c-2.73912,0 -4.90625,2.16713 -4.90625,4.90625l0,30c0,2.73912 2.16713,4.90625 4.90625,4.90625l30,0c2.73912,0 4.90625,-2.16713 4.90625,-4.90625l0,-30c0,-2.73912 -2.16713,-4.90625 -4.90625,-4.90625l-30,0z" id="E" fill="#4F9FE1"/>
    <path d="m25,8.21875c-6.50886,-0.0047 -11.74528,5.64466 -11.75,12.375c-0.00002,0.02155 0.00004,0.04147 0,0.0625c-1.39663,0.95511 -2.4375,2.42768 -2.4375,4.25l0,11.5c0,2.92976 2.36437,5.375 5.3125,5.375l17.71875,0c2.94813,0 5.34375,-2.43605 5.34375,-5.375l0,-11.5c0,-1.83612 -1.04923,-3.32501 -2.46875,-4.28125c0,-0.01118 -0.00001,-0.01963 0,-0.03125c0.00476,-6.72716 -5.21272,-12.37045 -11.71875,-12.375zm-0.09375,7.28125c2.57908,0.0017 4.40778,1.81883 4.40625,4l0,0.0625l-8.875,0l0,-0.0625c0.0013,-2.16154 1.89392,-4.0018 4.46875,-4z" id="F" stroke-width="1.5" fill="#03477F"/>
    <path d="m25,9.29462c-5.90059,-0.00426 -10.67868,5.09751 -10.68302,11.28772c-0.00013,0.16518 -0.0011,0.30769 0,0.47032c-1.44769,0.68946 -2.45239,2.14745 -2.45239,3.86336l0,11.48928c0,2.3801 1.88638,4.30009 4.26648,4.30009l17.70426,0c2.3801,0 4.30008,-1.91999 4.30008,-4.30009l0,-11.48928c0,-1.73202 -1.0162,-3.21595 -2.48598,-3.89696c0.00015,-0.15636 -0.00012,-0.27257 0,-0.43672c0.0044,-6.18845 -4.75022,-11.2836 -10.64943,-11.28772zm-0.10078,5.13994c3.0944,0.0021 5.47784,2.29308 5.47589,5.07276l0,1.10861l-10.98537,0l0,-1.10861c0.0017,-2.77539 2.41644,-5.07492 5.50948,-5.07276l0,0z" id="G" stroke-width="1.5" fill="url(#A)"/>
    <path stroke="url(#9)" d="m10,5.71875c-2.40561,0 -4.28125,1.87564 -4.28125,4.28125l0,30c0,2.40561 1.87564,4.28125 4.28125,4.28125l30,0c2.40561,0 4.28125,-1.87564 4.28125,-4.28125l0,-30c0,-2.40561 -1.87564,-4.28125 -4.28125,-4.28125l-30,0z" id="H" opacity="0.8" fill="none" stroke-linecap="round" stroke-dashoffset="30"/>
    <path d="m10,5.09375c-2.73912,0 -4.90625,2.16713 -4.90625,4.90625l0,17.15625c12.08521,-5.13314 25.68085,-9.56952 39.8125,-12.53125l0,-4.625c0,-2.73912 -2.16713,-4.90625 -4.90625,-4.90625l-30,0l0,0z" id="I" opacity="0.6" fill="url(#B)"/>
    <path transform="rotate(90 25.000000000000004,30.226131439208984) " stroke="#03477f" fill="#4f9fe1" d="m22.09227,23.7166c0.49641,-0.24917 1.09431,-0.03523 1.33626,0.4802c0.24096,0.51543 0.03299,1.13499 -0.46342,1.38468c-1.55721,0.78532 -2.63202,2.43729 -2.63101,4.3519c0.00499,2.66989 2.08961,4.83004 4.66565,4.83471c2.57653,-0.00519 4.66116,-2.16534 4.66616,-4.83471c0.001,-1.91564 -1.07431,-3.56917 -2.63303,-4.35293c-0.49741,-0.2497 -0.70387,-0.86925 -0.46341,-1.38468c0.24095,-0.5144 0.83784,-0.7299 1.33526,-0.48021c2.22559,1.11634 3.76032,3.48267 3.76132,6.21782c-0.001,3.81472 -2.98397,6.90628 -6.6663,6.90731c-3.68184,-0.00103 -6.6653,-3.09259 -6.6658,-6.90731c0.001,-2.73412 1.53372,-5.09889 3.75832,-6.21678z" id="svg_2"/>
  </g>
</svg>